<svg id="Layer_1" data-name="Layer 1" xmlns="http://www.w3.org/2000/svg" viewBox="0 0 595.28 841.89"><defs><style>.cls-1{fill:#f9dc5c;}.cls-2,.cls-3,.cls-4{isolation:isolate;}.cls-3{font-size:120px;fill:#2d4454;}.cls-3,.cls-4{font-family:FranklinGothic-Book, Franklin Gothic Book;}.cls-4{font-size:126px;}.cls-4,.cls-5{fill:#583d9e;}.cls-5{stroke:#583d9e;stroke-width:3px;}</style></defs><title>Artboard 1</title><g id="Layer_3" data-name="Layer 3"><ellipse class="cls-1" cx="393.22" cy="374.37" rx="9.91" ry="9.68"/><ellipse class="cls-1" cx="373.4" cy="401.8" rx="9.91" ry="9.68"/><ellipse class="cls-1" cx="373.4" cy="432.45" rx="9.91" ry="9.68"/><ellipse class="cls-1" cx="460.12" cy="455.85" rx="9.91" ry="9.68"/><ellipse class="cls-1" cx="479.95" cy="432.45" rx="9.91" ry="9.68"/><ellipse class="cls-1" cx="479.95" cy="401.8" rx="9.91" ry="9.68"/><ellipse class="cls-1" cx="461.77" cy="374.37" rx="9.91" ry="9.68"/><ellipse class="cls-1" cx="427.91" cy="362.27" rx="9.91" ry="9.68"/><g class="cls-2"><text class="cls-3" transform="translate(70.03 532.63)">S</text><text class="cls-3" transform="translate(138.12 532.63)">tud</text></g><text class="cls-4" transform="translate(306.75 532.31)">EU</text></g><g id="Layer_5" data-name="Layer 5"><path id="path6590" class="cls-5" d="M300.93,286.28v8.58l.37-.1a9.44,9.44,0,0,1,2.48-.33,10.06,10.06,0,0,1,0,20.11,9.46,9.46,0,0,1-2.48-.35l-.37-.1v8.68l.37-.1a9.44,9.44,0,0,1,2.48-.33,10.06,10.06,0,0,1,0,20.11,9.46,9.46,0,0,1-2.48-.35l-.37-.1v8.68l.37-.1a9.44,9.44,0,0,1,2.48-.33,10.05,10.05,0,0,1,0,20.1,9,9,0,0,1-2.48-.34l-.37-.1v8.68l.37-.1a9.44,9.44,0,0,1,2.48-.33,10.05,10.05,0,1,1,0,20.1,9.45,9.45,0,0,1-2.48-.34l-.37-.1v8.68l.37-.1A10,10,0,1,1,305.5,426a9.1,9.1,0,0,1-1.72.22,9.45,9.45,0,0,1-2.48-.34l-.37-.1v8.68l.37-.1a9.45,9.45,0,0,1,2.48-.34,10.06,10.06,0,0,1,0,20.11,9.45,9.45,0,0,1-2.48-.34l-.37-.1v8.68l.37-.1a9.45,9.45,0,0,1,2.48-.34,10.06,10.06,0,1,1,.29,20.12,10.37,10.37,0,0,1-2.77-.35l-.37-.11v8.68l.37-.1a9.44,9.44,0,0,1,2.48-.33,10.06,10.06,0,1,1,.29,20.12,10.37,10.37,0,0,1-2.77-.35l-.37-.11v8.68l.37-.1a9.44,9.44,0,0,1,2.48-.33,10.05,10.05,0,0,1,0,20.1,9,9,0,0,1-2.48-.34l-.37-.1v8.79h13.63v-.72h0a9.77,9.77,0,1,1,19.53-.63q0,.32,0,.63v.72H341v-.72a9.77,9.77,0,0,1,19.54,0v.72h6.92v-.72a9.77,9.77,0,1,1,19.54,0v.72h6.91v-.72a9.77,9.77,0,1,1,19.53-.63q0,.32,0,.63v.72h6.92v-.72a9.77,9.77,0,0,1,19.54,0v.72h6.91v-.72a9.77,9.77,0,0,1,19.53-.63q0,.32,0,.63v.72h6.92v-.72a9.77,9.77,0,0,1,19.54,0v.72h13.07v-8.44h-.33a5.77,5.77,0,0,0-1,.06,10.06,10.06,0,0,1,0-20.11h1.33v-8h-.33a8.39,8.39,0,0,1-1,.06,10.06,10.06,0,0,1,0-20.11h1.33v-8h-.33c-.32,0-.65.06-1,.06a10.06,10.06,0,0,1,0-20.11,6.84,6.84,0,0,1,1,.05h.33v-8h-.33a8.39,8.39,0,0,1-1,.06A10.06,10.06,0,0,1,504,434h1.33v-8H505a8.39,8.39,0,0,1-1,.06A10.06,10.06,0,0,1,504,406a6.84,6.84,0,0,1,1,.05h.33v-8H505c-.32,0-.64.05-1,.06A10.06,10.06,0,0,1,504,378a8.34,8.34,0,0,1,1,0h.32v-8H505c-.32,0-.64.05-1,.06a10.06,10.06,0,0,1,0-20.11,6.84,6.84,0,0,1,1,.05h.32v-8H505a8.39,8.39,0,0,1-1,.06,10.06,10.06,0,0,1,0-20.11,6.84,6.84,0,0,1,1,.05h.32v-8.07l-.34.06a9.26,9.26,0,0,1-1.49.12,10.06,10.06,0,0,1,0-20.11,9.28,9.28,0,0,1,1.49.14l.34.05V285.8H492.14l.05.35a10.14,10.14,0,0,1,.11,1.46,9.77,9.77,0,0,1-19.53.63q0-.32,0-.63h0a10.14,10.14,0,0,1,.11-1.46l.06-.35h-7.18l.06.35a11.81,11.81,0,0,1,.11,1.46,9.77,9.77,0,1,1-19.54,0h0a8.9,8.9,0,0,1,.12-1.46l.05-.35h-7.17l.05.35a10.14,10.14,0,0,1,.11,1.46,9.77,9.77,0,0,1-19.53.63q0-.32,0-.63h0a10.14,10.14,0,0,1,.11-1.46l.06-.35H413l.06.35a10.14,10.14,0,0,1,.11,1.46,9.77,9.77,0,0,1-19.54,0h0a11.81,11.81,0,0,1,.12-1.46l.05-.35h-7.17l.05.35a10.14,10.14,0,0,1,.11,1.46,9.77,9.77,0,0,1-19.53.63q0-.32,0-.63h0a10.14,10.14,0,0,1,.11-1.46l.06-.35h-7.18l.06.35a10.14,10.14,0,0,1,.11,1.46,9.77,9.77,0,1,1-19.54,0h0a11.81,11.81,0,0,1,.12-1.46l.05-.35h-7.17l.05.35a10.14,10.14,0,0,1,.11,1.46,9.77,9.77,0,0,1-19.53.63q0-.32,0-.63h0a10.14,10.14,0,0,1,.11-1.46l.06-.35Zm.59.6H314a9.71,9.71,0,0,0-.1,1.2h0a10.36,10.36,0,1,0,20.71.64c0-.21,0-.43,0-.64h0q0-.6-.09-1.2h5.85c0,.4-.09.8-.09,1.2h0a10.36,10.36,0,1,0,20.71.64c0-.21,0-.43,0-.64h0a5.4,5.4,0,0,0-.09-1.2h5.85q-.08.6-.09,1.2h0a10.36,10.36,0,1,0,20.71.64c0-.21,0-.43,0-.64h0a9.71,9.71,0,0,0-.1-1.2h5.86c-.05.4-.09.8-.1,1.2h0a10.36,10.36,0,1,0,20.72,0h0a9.71,9.71,0,0,0-.1-1.2h5.85c0,.4-.09.8-.09,1.2h0a10.36,10.36,0,1,0,20.71.64c0-.21,0-.43,0-.64h0c0-.4-.05-.8-.09-1.2h5.85q-.08.6-.09,1.2h0a10.36,10.36,0,1,0,20.71.64c0-.21,0-.43,0-.64h0c0-.4-.05-.8-.09-1.2h5.85c-.05.4-.09.8-.1,1.2h0a10.36,10.36,0,0,0,20.72,0h0a9.71,9.71,0,0,0-.1-1.2h12v7.05c-.41-.05-.83-.1-1.24-.11h0a10.66,10.66,0,0,0,0,21.32h0a10.36,10.36,0,0,0,1.24-.1v6.73H504a10.66,10.66,0,0,0,0,21.31h.71v6.67H504a10.66,10.66,0,1,0,0,21.32h0l.71-.05v6.67H504A10.66,10.66,0,1,0,504,399h0a3.4,3.4,0,0,0,.71-.05v6.68H504A10.66,10.66,0,1,0,504,427h.71v6.67H504A10.66,10.66,0,0,0,504,455h.71v6.67H504a10.66,10.66,0,1,0,0,21.32h.71v6.67H504a10.66,10.66,0,1,0,0,21.32h.71v6.67H504a10.66,10.66,0,0,0,0,21.32h.71v7.18H492.91V546h0a10.36,10.36,0,0,0-20.72,0h0v.11h-5.68V546h0a10.36,10.36,0,1,0-20.71-.64c0,.21,0,.43,0,.64h0v.11h-5.67V546h0a10.36,10.36,0,1,0-20.71-.64c0,.21,0,.43,0,.64h0v.1h-5.68V546h0A10.36,10.36,0,1,0,393,546h0v.1h-5.67V546h0a10.36,10.36,0,1,0-20.71-.64c0,.21,0,.43,0,.64h0v.1H361V546h0a10.36,10.36,0,1,0-20.71-.64c0,.21,0,.43,0,.64h0v.11h-5.68V546h0a10.36,10.36,0,1,0-20.71-.64c0,.21,0,.43,0,.64h0v.1H301.52v-7.45a9.61,9.61,0,0,0,2.26.31h0a10.66,10.66,0,0,0,0-21.31h0a10.15,10.15,0,0,0-2.26.3v-7.2a10.79,10.79,0,0,0,2.26.31h0a10.66,10.66,0,1,0,0-21.32h0a9.6,9.6,0,0,0-2.26.3v-7.2a10.17,10.17,0,0,0,2.26.31h0a10.66,10.66,0,1,0,0-21.32h0a9.6,9.6,0,0,0-2.26.3v-7.2a10.79,10.79,0,0,0,2.26.31h0a10.66,10.66,0,1,0,0-21.32h0a9.6,9.6,0,0,0-2.26.3V427a10.79,10.79,0,0,0,2.26.31h0a10.66,10.66,0,1,0,0-21.32,10.15,10.15,0,0,0-2.26.3v-7.2a9.61,9.61,0,0,0,2.26.31h0a10.66,10.66,0,1,0,0-21.32h0a9.61,9.61,0,0,0-2.26.31V371.2a9.61,9.61,0,0,0,2.26.31h0a10.66,10.66,0,0,0,0-21.32,9.61,9.61,0,0,0-2.26.31v-7.2a10.79,10.79,0,0,0,2.26.31h0a10.66,10.66,0,1,0,0-21.32h0a9.6,9.6,0,0,0-2.26.3v-7.2a10.79,10.79,0,0,0,2.26.31h0a10.66,10.66,0,1,0,0-21.32h0a9.6,9.6,0,0,0-2.26.3Z"/></g></svg>